<?xml version="1.0" encoding="UTF-8" standalone="no"?>
<!-- Created with Inkscape (http://www.inkscape.org/) -->

<svg
   width="45mm"
   height="45mm"
   viewBox="0 0 45 45"
   version="1.1"
   id="svg1388"
   sodipodi:docname="allw.svg"
   inkscape:version="1.1.1 (3bf5ae0d25, 2021-09-20)"
   xmlns:inkscape="http://www.inkscape.org/namespaces/inkscape"
   xmlns:sodipodi="http://sodipodi.sourceforge.net/DTD/sodipodi-0.dtd"
   xmlns="http://www.w3.org/2000/svg"
   xmlns:svg="http://www.w3.org/2000/svg">
  <sodipodi:namedview
     id="namedview1390"
     pagecolor="#505050"
     bordercolor="#eeeeee"
     borderopacity="1"
     inkscape:pageshadow="0"
     inkscape:pageopacity="0"
     inkscape:pagecheckerboard="0"
     inkscape:document-units="mm"
     showgrid="false"
     inkscape:zoom="3.7041667"
     inkscape:cx="86.929134"
     inkscape:cy="85.03937"
     inkscape:window-width="1920"
     inkscape:window-height="1040"
     inkscape:window-x="0"
     inkscape:window-y="24"
     inkscape:window-maximized="1"
     inkscape:current-layer="layer1" />
  <defs
     id="defs1385" />
  <g
     inkscape:label="Calque 1"
     inkscape:groupmode="layer"
     id="layer1">
    <g
       style="fill:none;fill-opacity:1;fill-rule:evenodd;stroke:#000000;stroke-width:1.5;stroke-linecap:round;stroke-linejoin:round;stroke-miterlimit:4;stroke-dasharray:none;stroke-opacity:1"
       id="g1320"
       transform="matrix(0.33583518,0,0,0.344298,17.161474,11.484875)">
      <path
         d="M 22.5,11.63 V 6"
         style="fill:none;stroke:#000000;stroke-linejoin:miter"
         id="path1306" />
      <path
         d="m 20,8 h 5"
         style="fill:none;stroke:#000000;stroke-linejoin:miter"
         id="path1308" />
      <path
         d="m 22.5,25 c 0,0 4.5,-7.5 3,-10.5 0,0 -1,-2.5 -3,-2.5 -2,0 -3,2.5 -3,2.5 -1.5,3 3,10.5 3,10.5"
         style="fill:#ffffff;stroke:#000000;stroke-linecap:butt;stroke-linejoin:miter"
         id="path1310" />
      <path
         d="m 12.5,37 c 5.5,3.5 14.5,3.5 20,0 v -7 c 0,0 9,-4.5 6,-10.5 -4,-6.5 -13.5,-3.5 -16,4 V 27 23.5 C 20,16 10.5,13 6.5,19.5 c -3,6 6,10.5 6,10.5 v 7"
         style="fill:#ffffff;stroke:#000000"
         id="path1312" />
      <path
         d="M 12.5,30 C 18,27 27,27 32.5,30"
         style="fill:none;stroke:#000000"
         id="path1314" />
      <path
         d="m 12.5,33.5 c 5.5,-3 14.5,-3 20,0"
         style="fill:none;stroke:#000000"
         id="path1316" />
      <path
         d="M 12.5,37 C 18,34 27,34 32.5,37"
         style="fill:none;stroke:#000000"
         id="path1318" />
    </g>
    <path
       d="m 24.343718,25.772993 c -0.584729,0 -1.058333,0.473604 -1.058333,1.058333 0,0.235479 0.07673,0.452438 0.206375,0.629709 -0.515938,0.296333 -0.867834,0.849312 -0.867834,1.486958 0,0.537104 0.248709,1.016 0.637646,1.330854 -0.79375,0.280458 -1.960562,1.468438 -1.960562,3.563938 h 6.085416 c 0,-2.0955 -1.166812,-3.28348 -1.960562,-3.563938 0.388937,-0.314854 0.637646,-0.79375 0.637646,-1.330854 0,-0.637646 -0.351896,-1.190625 -0.867834,-1.486958 0.129646,-0.177271 0.206375,-0.39423 0.206375,-0.629709 0,-0.584729 -0.473604,-1.058333 -1.058333,-1.058333 z"
       style="fill:#ffffff;fill-opacity:1;fill-rule:nonzero;stroke:#000000;stroke-width:0.396875;stroke-linecap:round;stroke-linejoin:miter;stroke-miterlimit:4;stroke-dasharray:none;stroke-opacity:1"
       id="path1241" />
    <g
       style="fill:#ffffff;stroke:#000000;stroke-width:1.5;stroke-linejoin:round"
       id="g1176"
       transform="matrix(0.26458333,0,0,0.26458333,26.065607,6.3406377)">
      <path
         d="m 9,26 c 8.5,-1.5 21,-1.5 27,0 L 38.5,13.5 31,25 30.7,10.9 25.5,24.5 22.5,10 19.5,24.5 14.3,10.9 14,25 6.5,13.5 Z"
         id="path1158" />
      <path
         d="m 9,26 c 0,2 1.5,2 2.5,4 1,1.5 1,1 0.5,3.5 -1.5,1 -1,2.5 -1,2.5 -1.5,1.5 0,2.5 0,2.5 6.5,1 16.5,1 23,0 0,0 1.5,-1 0,-2.5 0,0 0.5,-1.5 -1,-2.5 -0.5,-2.5 -0.5,-2 0.5,-3.5 1,-2 2.5,-2 2.5,-4 -8.5,-1.5 -18.5,-1.5 -27,0 z"
         id="path1160" />
      <path
         d="M 11.5,30 C 15,29 30,29 33.5,30"
         style="fill:none"
         id="path1162" />
      <path
         d="m 12,33.5 c 6,-1 15,-1 21,0"
         style="fill:none"
         id="path1164" />
      <circle
         cx="6"
         cy="12"
         r="2"
         id="circle1166" />
      <circle
         cx="14"
         cy="9"
         r="2"
         id="circle1168" />
      <circle
         cx="22.5"
         cy="8"
         r="2"
         id="circle1170" />
      <circle
         cx="31"
         cy="9"
         r="2"
         id="circle1172" />
      <circle
         cx="39"
         cy="12"
         r="2"
         id="circle1174" />
    </g>
    <g
       style="fill:#ffffff;fill-opacity:1;fill-rule:evenodd;stroke:#000000;stroke-width:1.5;stroke-linecap:round;stroke-linejoin:round;stroke-miterlimit:4;stroke-dasharray:none;stroke-opacity:1"
       id="g1070"
       transform="matrix(0.26458333,0,0,0.26458333,10.357229,6.2532235)">
      <path
         d="M 9,39 H 36 V 36 H 9 Z"
         style="stroke-linecap:butt"
         id="path1056" />
      <path
         d="m 12,36 v -4 h 21 v 4 z"
         style="stroke-linecap:butt"
         id="path1058" />
      <path
         d="M 11,14 V 9 h 4 v 2 h 5 V 9 h 5 v 2 h 5 V 9 h 4 v 5"
         style="stroke-linecap:butt"
         id="path1060" />
      <path
         d="m 34,14 -3,3 H 14 l -3,-3"
         id="path1062" />
      <path
         d="M 31,17 V 29.5 H 14 V 17"
         style="stroke-linecap:butt;stroke-linejoin:miter"
         id="path1064" />
      <path
         d="m 31,29.5 1.5,2.5 h -20 L 14,29.5"
         id="path1066" />
      <path
         d="M 11,14 H 34"
         style="fill:none;stroke:#000000;stroke-linejoin:miter"
         id="path1068" />
    </g>
    <g
       style="fill:none;fill-opacity:1;fill-rule:evenodd;stroke:#000000;stroke-width:1.5;stroke-linecap:round;stroke-linejoin:round;stroke-miterlimit:4;stroke-dasharray:none;stroke-opacity:1"
       id="g1915"
       transform="matrix(0.26458333,0,0,0.26458333,10.652271,19.496025)">
      <path
         d="m 22,10 c 10.5,1 16.5,8 16,29 H 15 c 0,-9 10,-6.5 8,-21"
         style="fill:#ffffff;stroke:#000000"
         id="path1907" />
      <path
         d="m 24,18 c 0.38,2.91 -5.55,7.37 -8,9 -3,2 -2.82,4.34 -5,4 -1.042,-0.94 1.41,-3.04 0,-3 -1,0 0.19,1.23 -1,2 -1,0 -4.003,1 -4,-4 0,-2 6,-12 6,-12 0,0 1.89,-1.9 2,-3.5 -0.73,-0.994 -0.5,-2 -0.5,-3 1,-1 3,2.5 3,2.5 h 2 c 0,0 0.78,-1.992 2.5,-3 1,0 1,3 1,3"
         style="fill:#ffffff;stroke:#000000"
         id="path1909" />
      <path
         d="m 9.5,25.5 a 0.5,0.5 0 1 1 -1,0 0.5,0.5 0 1 1 1,0 z"
         style="fill:#000000;stroke:#000000"
         id="path1911" />
      <path
         d="m 15,15.5 a 0.5,1.5 0 1 1 -1,0 0.5,1.5 0 1 1 1,0 z"
         transform="matrix(0.866,0.5,-0.5,0.866,9.693,-5.173)"
         style="fill:#000000;stroke:#000000"
         id="path1913" />
    </g>
    <g
       style="fill:none;fill-opacity:1;fill-rule:evenodd;stroke:#000000;stroke-width:1.5;stroke-linecap:round;stroke-linejoin:round;stroke-miterlimit:4;stroke-dasharray:none;stroke-opacity:1"
       id="g1842"
       transform="matrix(0.26458333,0,0,0.26458333,25.930553,19.85532)">
      <g
         style="fill:#ffffff;stroke:#000000;stroke-linecap:butt"
         id="g1838">
        <path
           d="m 9,36 c 3.39,-0.97 10.11,0.43 13.5,-2 3.39,2.43 10.11,1.03 13.5,2 0,0 1.65,0.54 3,2 -0.68,0.97 -1.65,0.99 -3,0.5 -3.39,-0.97 -10.11,0.46 -13.5,-1 C 19.11,38.96 12.39,37.53 9,38.5 7.65,38.99 6.68,38.97 6,38 7.35,36.54 9,36 9,36 Z"
           id="path1832" />
        <path
           d="m 15,32 c 2.5,2.5 12.5,2.5 15,0 0.5,-1.5 0,-2 0,-2 0,-2.5 -2.5,-4 -2.5,-4 5.5,-1.5 6,-11.5 -5,-15.5 -11,4 -10.5,14 -5,15.5 0,0 -2.5,1.5 -2.5,4 0,0 -0.5,0.5 0,2 z"
           id="path1834" />
        <path
           d="m 25,8 a 2.5,2.5 0 1 1 -5,0 2.5,2.5 0 1 1 5,0 z"
           id="path1836" />
      </g>
      <path
         d="m 17.5,26 h 10 M 15,30 H 30 M 22.5,15.5 v 5 M 20,18 h 5"
         style="fill:none;stroke:#000000;stroke-linejoin:miter"
         id="path1840" />
    </g>
  </g>
</svg>
